<svg xmlns="http://www.w3.org/2000/svg" viewBox="0 0 475.66 379.35"><defs><style>.cls-1{fill:#e5eaf6;}</style></defs><g id="Camada_2" data-name="Camada 2"><g id="Camada_1-2" data-name="Camada 1"><g id="Camada_2-2" data-name="Camada 2"><g id="Camada_1-2-2" data-name="Camada 1-2"><path class="cls-1" d="M217.9,192a84.49,84.49,0,0,1,166.65,0h91.11a175,175,0,0,0-349.12,0Z"/><path class="cls-1" d="M384.54,220a84.49,84.49,0,0,1-166.65,0H126.8a175,175,0,0,0,348.6,0Z"/><circle class="cls-1" cx="301.1" cy="204.36" r="55"/></g></g><circle class="cls-1" cx="21.11" cy="4" r="4"/><circle class="cls-1" cx="55.33" cy="4" r="4"/><circle class="cls-1" cx="4" cy="4" r="4"/><circle class="cls-1" cx="38.22" cy="4" r="4"/><circle class="cls-1" cx="21.11" cy="25.38" r="4"/><circle class="cls-1" cx="55.33" cy="25.38" r="4"/><circle class="cls-1" cx="4" cy="25.38" r="4"/><circle class="cls-1" cx="38.22" cy="25.38" r="4"/><circle class="cls-1" cx="21.11" cy="46.75" r="4"/><circle class="cls-1" cx="55.33" cy="46.75" r="4"/><circle class="cls-1" cx="4" cy="46.75" r="4"/><circle class="cls-1" cx="38.22" cy="46.75" r="4"/></g></g></svg>